<svg width="55" height="56" viewBox="0 0 55 56" fill="none" xmlns="http://www.w3.org/2000/svg">
<path d="M24.1668 3.81715C34.5744 3.81715 43.1123 11.8186 43.9781 22.0164H31.5995C30.8627 18.5095 27.7588 15.87 24.0379 15.87C20.317 15.87 17.2131 18.5095 16.4763 22.0164H4.35561C5.23058 11.8186 13.7685 3.81715 24.1668 3.81715ZM28.3022 22.0164C28.4864 22.5148 28.5878 23.0501 28.5878 23.613H28.597C28.597 24.176 28.4957 24.7113 28.3115 25.2096C27.6667 26.9446 25.9997 28.1721 24.0471 28.1721C22.0945 28.1721 20.4275 26.9354 19.7828 25.2096C19.5986 24.7113 19.4972 24.176 19.4972 23.613H19.488C19.488 23.0501 19.5894 22.5148 19.7736 22.0164C20.4183 20.2814 22.0853 19.054 24.0379 19.054C25.9905 19.054 27.6575 20.2906 28.3022 22.0164ZM23.909 43.4181C13.5014 43.4181 4.96348 35.4167 4.09772 25.2188H16.4763C17.2131 28.7258 20.317 31.3653 24.0379 31.3653C27.7588 31.3653 30.8627 28.7258 31.5995 25.2188H43.7294C42.8544 35.4075 34.3165 43.4181 23.909 43.4181ZM24.0379 0.0148621C11.033 0.0148621 0.487305 10.5819 0.487305 23.613C0.487305 36.6442 11.033 47.2112 24.0379 47.2112C37.0428 47.2112 47.5977 36.6534 47.5977 23.613C47.5977 10.5727 37.052 0.0148621 24.0379 0.0148621Z" fill="#F2DA03"/>
<path d="M33.4757 45.9911L33.2981 45.8884L33.3266 46.0916L33.4601 47.041C33.5088 47.3879 33.4198 47.7369 33.2107 48.0144L28.22 54.6373C28.2199 54.6373 28.2199 54.6374 28.2198 54.6375C27.7817 55.2123 26.9589 55.3278 26.3785 54.8905L24.4985 53.4738L24.498 53.4735C23.9192 53.0422 23.8031 52.2199 24.2406 51.6393L29.2317 45.016C29.4408 44.7385 29.7517 44.5567 30.0986 44.5079L31.048 44.3745L31.2511 44.3459L31.1035 44.2035C29.2225 42.3883 27.9147 39.9567 27.5225 37.1662C26.5896 30.5284 31.2121 24.3941 37.8499 23.4612C44.4878 22.5283 50.6221 27.1508 51.555 33.7886C52.4878 40.4265 47.8653 46.5608 41.2275 47.4937C38.437 47.8858 35.739 47.2989 33.4757 45.9911ZM38.477 27.9228C34.2984 28.5101 31.3977 32.3665 31.9841 36.5391C32.5714 40.7177 36.4278 43.6184 40.6004 43.032C44.779 42.4447 47.6797 38.5884 47.0933 34.4157C46.506 30.2371 42.6497 27.3364 38.477 27.9228Z" fill="#F2DA03" stroke="#F2DA03" stroke-width="0.2"/>
</svg>
