<svg width="304" height="66" viewBox="0 0 304 66" fill="none" xmlns="http://www.w3.org/2000/svg">
<path d="M4.75779 58.3289V18.3089H16.8178V58.3289H4.75779ZM24.3211 30.4289C25.0011 30.0689 26.0011 29.6889 27.3211 29.2889C28.6411 28.8489 30.1211 28.4489 31.7611 28.0889C33.4411 27.7289 35.1211 27.4289 36.8011 27.1889C38.4811 26.9489 40.0011 26.8289 41.3611 26.8289C44.0011 26.8289 46.3211 27.1489 48.3211 27.7889C50.3211 28.3889 51.8811 29.4689 53.0011 31.0289C54.1211 32.5489 54.6811 34.7089 54.6811 37.5089V58.3289H43.7611V40.1489C43.7611 39.3489 43.6411 38.6689 43.4011 38.1089C43.2011 37.5089 42.8811 37.0489 42.4411 36.7289C42.0411 36.3689 41.5211 36.1089 40.8811 35.9489C40.2811 35.7889 39.5811 35.7089 38.7811 35.7089C38.0211 35.7089 37.2611 35.8289 36.5011 36.0689C35.7811 36.2689 35.3611 36.4689 35.2411 36.6689V58.3289H24.3211V30.4289ZM63.9197 58.3289V35.8889H59.7797V27.7889H64.0397V27.4889C64.0397 25.6089 64.2197 23.9689 64.5797 22.5689C64.9397 21.1289 65.4597 19.9089 66.1397 18.9089C66.8197 17.9089 67.6597 17.1089 68.6597 16.5089C69.6597 15.9089 70.7997 15.4689 72.0797 15.1889C73.3997 14.9089 74.8597 14.7689 76.4597 14.7689C77.1397 14.7689 77.9197 14.8289 78.7997 14.9489C79.6797 15.0689 80.3797 15.2289 80.8997 15.4289V25.0889C80.4597 24.5289 79.9997 24.0889 79.5197 23.7689C79.0797 23.4089 78.3997 23.2289 77.4797 23.2289C77.0397 23.2289 76.6597 23.3089 76.3397 23.4689C76.0197 23.5889 75.7597 23.7689 75.5597 24.0089C75.3597 24.2489 75.1997 24.5489 75.0797 24.9089C74.9997 25.2289 74.9597 25.5689 74.9597 25.9289V27.7889H80.8997V35.8889H74.8397V58.3289H63.9197ZM99.7144 59.2289C94.3944 59.2289 90.3744 57.8689 87.6544 55.1489C84.9744 52.4289 83.6344 48.3289 83.6344 42.8489C83.6344 36.8889 84.9744 32.6889 87.6544 30.2489C90.3744 27.8089 94.3944 26.5889 99.7144 26.5889C103.194 26.5889 106.134 27.1289 108.534 28.2089C110.974 29.2489 112.814 30.9689 114.054 33.3689C115.334 35.7289 115.974 38.8889 115.974 42.8489C115.974 48.3289 114.574 52.4289 111.774 55.1489C108.974 57.8689 104.954 59.2289 99.7144 59.2289ZM99.7144 50.7089C100.794 50.7089 101.734 50.4489 102.534 49.9289C103.374 49.3689 104.014 48.5089 104.454 47.3489C104.934 46.1889 105.174 44.6889 105.174 42.8489C105.174 40.6489 104.934 38.9889 104.454 37.8689C104.014 36.7489 103.374 35.9889 102.534 35.5889C101.734 35.1889 100.794 34.9889 99.7144 34.9889C98.5944 34.9889 97.6344 35.1889 96.8344 35.5889C96.0344 35.9889 95.4344 36.7489 95.0344 37.8689C94.6344 38.9889 94.4344 40.6489 94.4344 42.8489C94.4344 45.6889 94.8744 47.7089 95.7544 48.9089C96.6744 50.1089 97.9944 50.7089 99.7144 50.7089ZM121.652 58.3289V18.3089H133.772L147.032 35.8889H140.792L154.412 18.3089H166.172V58.3289H154.172V26.9489L156.032 31.3289L143.612 47.4089L130.772 30.7289L133.052 29.5889V58.3289H121.652ZM187.957 59.2289C182.637 59.2289 178.617 57.8689 175.897 55.1489C173.217 52.4289 171.877 48.3289 171.877 42.8489C171.877 36.8889 173.217 32.6889 175.897 30.2489C178.617 27.8089 182.637 26.5889 187.957 26.5889C191.437 26.5889 194.377 27.1289 196.777 28.2089C199.217 29.2489 201.057 30.9689 202.297 33.3689C203.577 35.7289 204.217 38.8889 204.217 42.8489C204.217 48.3289 202.817 52.4289 200.017 55.1489C197.217 57.8689 193.197 59.2289 187.957 59.2289ZM187.957 50.7089C189.037 50.7089 189.977 50.4489 190.777 49.9289C191.617 49.3689 192.257 48.5089 192.697 47.3489C193.177 46.1889 193.417 44.6889 193.417 42.8489C193.417 40.6489 193.177 38.9889 192.697 37.8689C192.257 36.7489 191.617 35.9889 190.777 35.5889C189.977 35.1889 189.037 34.9889 187.957 34.9889C186.837 34.9889 185.877 35.1889 185.077 35.5889C184.277 35.9889 183.677 36.7489 183.277 37.8689C182.877 38.9889 182.677 40.6489 182.677 42.8489C182.677 45.6889 183.117 47.7089 183.997 48.9089C184.917 50.1089 186.237 50.7089 187.957 50.7089ZM209.595 30.4289C210.275 30.0689 211.275 29.6889 212.595 29.2889C213.915 28.8489 215.395 28.4489 217.035 28.0889C218.715 27.7289 220.395 27.4289 222.075 27.1889C223.755 26.9489 225.275 26.8289 226.635 26.8289C229.275 26.8289 231.595 27.1489 233.595 27.7889C235.595 28.3889 237.155 29.4689 238.275 31.0289C239.395 32.5489 239.955 34.7089 239.955 37.5089V58.3289H229.035V40.1489C229.035 39.3489 228.915 38.6689 228.675 38.1089C228.475 37.5089 228.155 37.0489 227.715 36.7289C227.315 36.3689 226.795 36.1089 226.155 35.9489C225.555 35.7889 224.855 35.7089 224.055 35.7089C223.295 35.7089 222.535 35.8289 221.775 36.0689C221.055 36.2689 220.635 36.4689 220.515 36.6689V58.3289H209.595V30.4289Z" fill="#F2DA03"/>
<path d="M273.167 13.8171C283.574 13.8171 292.112 21.8186 292.978 32.0164H280.6C279.863 28.5095 276.759 25.87 273.038 25.87C269.317 25.87 266.213 28.5095 265.476 32.0164H253.356C254.231 21.8186 262.768 13.8171 273.167 13.8171ZM277.302 32.0164C277.486 32.5148 277.588 33.0501 277.588 33.613H277.597C277.597 34.176 277.496 34.7113 277.311 35.2096C276.667 36.9446 275 38.1721 273.047 38.1721C271.095 38.1721 269.427 36.9354 268.783 35.2096C268.599 34.7113 268.497 34.176 268.497 33.613H268.488C268.488 33.0501 268.589 32.5148 268.774 32.0164C269.418 30.2814 271.085 29.054 273.038 29.054C274.99 29.054 276.658 30.2906 277.302 32.0164ZM272.909 53.4181C262.501 53.4181 253.963 45.4167 253.098 35.2188H265.476C266.213 38.7258 269.317 41.3653 273.038 41.3653C276.759 41.3653 279.863 38.7258 280.6 35.2188H292.729C291.854 45.4075 283.317 53.4181 272.909 53.4181ZM273.038 10.0149C260.033 10.0149 249.487 20.5819 249.487 33.613C249.487 46.6442 260.033 57.2112 273.038 57.2112C286.043 57.2112 296.598 46.6534 296.598 33.613C296.598 20.5727 286.052 10.0149 273.038 10.0149Z" fill="#F2DA03"/>
<path d="M282.476 55.9911L282.298 55.8884L282.327 56.0916L282.46 57.041C282.509 57.3879 282.42 57.7369 282.211 58.0144L277.22 64.6373C277.22 64.6374 277.22 64.6375 277.22 64.6377C276.781 65.2123 275.959 65.3278 275.378 64.8905L273.498 63.4738L273.498 63.4735C272.919 63.0422 272.803 62.2199 273.241 61.6393L278.232 55.016C278.441 54.7385 278.752 54.5567 279.099 54.5079L280.048 54.3745L280.251 54.3459L280.104 54.2035C278.223 52.3883 276.915 49.9567 276.522 47.1662C275.59 40.5284 280.212 34.3941 286.85 33.4612C293.488 32.5283 299.622 37.1508 300.555 43.7886C301.488 50.4265 296.865 56.5608 290.227 57.4937C287.437 57.8858 284.739 57.2989 282.476 55.9911ZM287.477 37.9228C283.298 38.5101 280.398 42.3665 280.984 46.5391C281.571 50.7177 285.428 53.6184 289.6 53.032C293.779 52.4447 296.68 48.5884 296.093 44.4157C295.506 40.2371 291.65 37.3364 287.477 37.9228Z" fill="#F2DA03" stroke="#F2DA03" stroke-width="0.2"/>
</svg>
